<svg xmlns="http://www.w3.org/2000/svg" viewBox="0 0 720 960"><defs><radialGradient id="b"><stop stop-color="#5667a8"/><stop offset="1" stop-color="#0b1025"/></radialGradient><linearGradient id="g" x1="0" y1="0" x2="1" y2="1"><stop stop-color="#fff2ad"/><stop offset="1" stop-color="#b77a29"/></linearGradient></defs><rect width="720" height="960" fill="url(#b)"/><circle cx="360" cy="440" r="225" fill="none" stroke="url(#g)" stroke-width="18" opacity=".9"/><path d="M205 443c28-105 119-177 225-168l-45-58 117 28-30 113-43-55c-75-8-147 36-177 106zM515 459c-28 105-119 177-225 168l45 58-117-28 30-113 43 55c75 8 147-36 177-106z" fill="url(#g)"/><g fill="#fff5c4" opacity=".75"><circle cx="131" cy="164" r="6"/><circle cx="598" cy="176" r="8"/><circle cx="112" cy="742" r="8"/><circle cx="624" cy="723" r="5"/></g></svg>